<svg id="Layer_73" data-name="Layer 73" xmlns="http://www.w3.org/2000/svg" width="35" height="35" viewBox="0 0 35 35">
  <path id="Trazado_94990" data-name="Trazado 94990" d="M30.489,38.25H11.011A7.767,7.767,0,0,1,3.25,30.489V11.011A7.767,7.767,0,0,1,11.011,3.25H30.489a7.767,7.767,0,0,1,7.761,7.761V30.489A7.767,7.767,0,0,1,30.489,38.25ZM20.421,14.328l-4.6-4.6a.456.456,0,0,0-.645,0l-4.6,4.6a1.455,1.455,0,0,0,1.035,2.477,1.418,1.418,0,0,0,1.029-.426l1.406-1.406V30.447a1.455,1.455,0,1,0,2.91,0V14.98l1.406,1.412a1.457,1.457,0,1,0,2.057-2.063Zm0,14.286a1.455,1.455,0,0,0,1.455,1.455h8a1.455,1.455,0,0,0,0-2.91H21.894a1.455,1.455,0,0,0-1.455,1.455ZM29.88,12.837H28.207a1.455,1.455,0,0,0,0,2.91H29.88a1.455,1.455,0,0,0,0-2.91Zm0,7.158H25.053a1.455,1.455,0,0,0,0,2.91H29.88a1.455,1.455,0,0,0,0-2.91Z" transform="translate(-3.25 -3.25)" fill="#3742a6"/>
</svg>
