<svg xmlns="http://www.w3.org/2000/svg" width="46" height="45" viewBox="0 0 46 45">
  <g id="borrar" transform="translate(-304 -289)">
    <g id="Grupo_45722" data-name="Grupo 45722">
      <g id="Grupo_40687" data-name="Grupo 40687" transform="translate(317 300)">
        <path id="Trazado_83528" data-name="Trazado 83528" d="M2334.525,1835.752v-.618a.506.506,0,0,1,.507-.507h2.365a.506.506,0,0,1,.507.507v.618h1.125v-.618a1.635,1.635,0,0,0-1.633-1.634h-2.363a1.634,1.634,0,0,0-1.632,1.634v.618Z" transform="translate(-2326.644 -1833.5)" fill="#6f7073"/>
        <path id="Trazado_83529" data-name="Trazado 83529" d="M2019.239,2266.307l-1.5,12.988a1.227,1.227,0,0,1-1.218,1.086h-9.072a1.227,1.227,0,0,1-1.218-1.086l-1.5-12.988h-1.009a.952.952,0,0,1-.125-.007l1.513,13.123a2.353,2.353,0,0,0,2.338,2.083h9.072a2.351,2.351,0,0,0,2.336-2.083l1.514-13.123c-.041,0-.083.007-.125.007Z" transform="translate(-2002.416 -2258.988)" fill="#6f7073"/>
        <path id="Trazado_83530" data-name="Trazado 83530" d="M1949.858,1966.8h-13.576a2.786,2.786,0,0,0-2.782,2.782v.977a1.311,1.311,0,0,0,1.183,1.3c.04,0,.083.007.125.007h16.524a1,1,0,0,0,.125-.007,1.311,1.311,0,0,0,1.183-1.3v-.977A2.784,2.784,0,0,0,1949.858,1966.8Zm1.162,3.941h-16.213a.182.182,0,0,1-.182-.182v-.977a1.656,1.656,0,0,1,1.656-1.656h13.576a1.656,1.656,0,0,1,1.656,1.656v.977a.182.182,0,0,1-.182.182Z" transform="translate(-1933.5 -1964.548)" fill="#6f7073"/>
        <path id="Trazado_83531" data-name="Trazado 83531" d="M2467.262,2376.833a.563.563,0,0,0,.563-.562v-9.008a.563.563,0,0,0-1.125,0v9.008A.562.562,0,0,0,2467.262,2376.833Z" transform="translate(-2457.692 -2357.692)" fill="#6f7073"/>
        <path id="Trazado_83532" data-name="Trazado 83532" d="M2667.508,2378.8a.563.563,0,0,0,.628-.489l1.113-8.938a.563.563,0,0,0-1.117-.14l-1.113,8.939A.561.561,0,0,0,2667.508,2378.8Z" transform="translate(-2654.623 -2359.694)" fill="#6f7073"/>
        <path id="Trazado_83533" data-name="Trazado 83533" d="M2201.553,2378.306a.563.563,0,0,0,1.116-.141l-1.113-8.938a.563.563,0,1,0-1.117.14Z" transform="translate(-2195.925 -2359.692)" fill="#6f7073"/>
      </g>
      <rect id="Rectángulo_26133" data-name="Rectángulo 26133" width="46" height="45" transform="translate(304 289)" fill="none"/>
    </g>
  </g>
</svg>
