<svg xmlns="http://www.w3.org/2000/svg" width="55" height="73" viewBox="0 0 55 73">
  <g id="Grupo_41208" data-name="Grupo 41208" transform="translate(-1014 -210)">
    <text id="Cargar" transform="translate(1014 279)" fill="#ed5034" font-size="18" font-family="HelveticaNeue, Helvetica Neue"><tspan x="0" y="0">Cargar</tspan></text>
    <g id="Icon" transform="translate(1018.2 210.201)">
      <g id="_68" data-name="68" transform="translate(0 0)">
        <path id="Background" d="M12,0H35A12,12,0,0,1,47,12V35A12,12,0,0,1,35,47H12A12,12,0,0,1,0,35V12A12,12,0,0,1,12,0Z" transform="translate(46.799 46.799) rotate(180)" fill="#ed5034"/>
        <g id="Grupo_41206" data-name="Grupo 41206" transform="translate(8.318 8.766)">
          <path id="Trazado_94975" data-name="Trazado 94975" d="M157.95,108.047l-4.344-4.344V115.54a2.285,2.285,0,0,1-4.57,0V103.7l-4.344,4.344a2.285,2.285,0,0,1-3.232-3.232l8.246-8.246a2.286,2.286,0,0,1,3.232,0l8.246,8.246a2.285,2.285,0,1,1-3.232,3.232Z" transform="translate(-136.239 -95.9)" fill="#fff"/>
          <path id="Trazado_94976" data-name="Trazado 94976" d="M93.285,271.09A2.285,2.285,0,0,0,91,273.375v6.4a4.571,4.571,0,0,0,4.57,4.57h21.023a4.571,4.571,0,0,0,4.57-4.57v-6.4a2.285,2.285,0,0,0-4.57,0v5.256a1.143,1.143,0,0,1-1.143,1.143H96.713a1.143,1.143,0,0,1-1.143-1.143v-5.256A2.285,2.285,0,0,0,93.285,271.09Z" transform="translate(-91 -255.077)" fill="#fff"/>
        </g>
      </g>
    </g>
  </g>
</svg>
