<svg xmlns="http://www.w3.org/2000/svg" width="46" height="45" viewBox="0 0 46 45">
  <g id="Grupo_45719" data-name="Grupo 45719" transform="translate(-370 -213)">
    <rect id="Rectángulo_26133" data-name="Rectángulo 26133" width="46" height="45" transform="translate(370 213)" fill="none"/>
    <g id="settings" transform="translate(378 219)">
      <g id="Grupo_5002" data-name="Grupo 5002" transform="translate(0 0)">
        <g id="Grupo_5001" data-name="Grupo 5001" transform="translate(0 0)">
          <path id="Trazado_266" data-name="Trazado 266" d="M28.946,12.12l-1.723-.3a12.228,12.228,0,0,0-.829-2.005l1-1.431A2.479,2.479,0,0,0,27.121,5.2L25.8,3.879A2.479,2.479,0,0,0,22.618,3.6l-1.431,1a12.228,12.228,0,0,0-2.005-.829l-.3-1.723A2.482,2.482,0,0,0,16.435,0h-1.87A2.479,2.479,0,0,0,12.12,2.054l-.3,1.723a12.216,12.216,0,0,0-2.005.829l-1.431-1A2.479,2.479,0,0,0,5.2,3.879L3.879,5.2A2.479,2.479,0,0,0,3.6,8.381l1,1.431a12.228,12.228,0,0,0-.829,2.005l-1.723.3A2.479,2.479,0,0,0,0,14.565v1.87A2.482,2.482,0,0,0,2.054,18.88l1.723.3a12.216,12.216,0,0,0,.829,2.005l-1,1.431A2.479,2.479,0,0,0,3.879,25.8L5.2,27.121a2.479,2.479,0,0,0,3.181.277l1.431-1a12.211,12.211,0,0,0,2.005.829l.3,1.723A2.479,2.479,0,0,0,14.565,31h1.87a2.479,2.479,0,0,0,2.445-2.053.787.787,0,0,0-1.551-.272.908.908,0,0,1-.894.751h-1.87a.908.908,0,0,1-.895-.751l-.387-2.206a.787.787,0,0,0-.569-.624,10.634,10.634,0,0,1-2.558-1.057.787.787,0,0,0-.848.038L7.478,26.11a.908.908,0,0,1-1.164-.1L4.992,24.686a.908.908,0,0,1-.1-1.164l1.285-1.831a.787.787,0,0,0,.038-.848,10.643,10.643,0,0,1-1.058-2.558.787.787,0,0,0-.624-.572l-2.205-.387a.908.908,0,0,1-.751-.892v-1.87a.908.908,0,0,1,.751-.894l2.206-.387a.787.787,0,0,0,.624-.569,10.648,10.648,0,0,1,1.058-2.558.787.787,0,0,0-.038-.848L4.89,7.478a.908.908,0,0,1,.1-1.164L6.314,4.992a.908.908,0,0,1,1.164-.1L9.309,6.176a.787.787,0,0,0,.848.038,10.636,10.636,0,0,1,2.558-1.058.787.787,0,0,0,.572-.624l.387-2.206a.908.908,0,0,1,.892-.751h1.87a.908.908,0,0,1,.895.751l.387,2.206a.787.787,0,0,0,.569.624,10.649,10.649,0,0,1,2.558,1.058.787.787,0,0,0,.848-.038l1.832-1.285a.908.908,0,0,1,1.164.1l1.322,1.322a.908.908,0,0,1,.1,1.164L24.824,9.31a.787.787,0,0,0-.038.848,10.653,10.653,0,0,1,1.058,2.558.787.787,0,0,0,.624.571l2.206.387a.908.908,0,0,1,.751.892v1.87a.908.908,0,0,1-.751.895.787.787,0,0,0,.272,1.551A2.479,2.479,0,0,0,31,16.435v-1.87A2.482,2.482,0,0,0,28.946,12.12Z" transform="translate(0 0)" fill="#fff"/>
        </g>
      </g>
      <g id="Grupo_5004" data-name="Grupo 5004" transform="translate(7.806 7.807)">
        <g id="Grupo_5003" data-name="Grupo 5003">
          <path id="Trazado_267" data-name="Trazado 267" d="M149.887,144.842l-5.035-5.188a3.223,3.223,0,0,1-.9-2.543,7.513,7.513,0,0,0-8.15-8.138,1.472,1.472,0,0,0-.913.418,1.523,1.523,0,0,0-.021,2.151l2.169,2.212a1.139,1.139,0,0,1-.015,1.611h0l-1.68,1.647A1.14,1.14,0,0,1,133.73,137l-2.169-2.212a1.523,1.523,0,0,0-2.151-.021,1.472,1.472,0,0,0-.436.905,7.513,7.513,0,0,0,7.981,8.3,3.22,3.22,0,0,1,2.521.948l5.032,5.185a.787.787,0,0,0,1.13-1.1l-5.035-5.188a4.8,4.8,0,0,0-3.754-1.42,5.939,5.939,0,0,1-6.324-6.424l2.08,2.119a2.7,2.7,0,0,0,1.911.813h.027a2.7,2.7,0,0,0,1.9-.774l1.68-1.647a2.714,2.714,0,0,0,.037-3.837l-2.08-2.119a5.939,5.939,0,0,1,6.3,6.445,4.792,4.792,0,0,0,1.344,3.777l5.032,5.185a.787.787,0,1,0,1.13-1.1Z" transform="translate(-128.929 -128.943)" fill="#fff"/>
        </g>
      </g>
    </g>
  </g>
</svg>
