<svg xmlns="http://www.w3.org/2000/svg" width="46" height="45" viewBox="0 0 46 45">
  <g id="contratos-hover" transform="translate(-172 -213)">
    <rect id="Rectángulo_26133" data-name="Rectángulo 26133" width="46" height="45" transform="translate(172 213)" fill="none"/>
    <path id="project_icon" data-name="project icon" d="M52.2,385.592a1.048,1.048,0,0,1,1.044-1.053h8.617a3.072,3.072,0,0,0,2.685-1.154,4.384,4.384,0,0,0,.88-2.374c.043-.775.257-3.225.257-3.225a1.032,1.032,0,0,1,2.063.081c0,.032-.2,2.509-.241,3.272a6.439,6.439,0,0,1-1.354,3.591,5.169,5.169,0,0,1-4.288,1.914H53.25A1.047,1.047,0,0,1,52.2,385.6Zm-6.282,1.049a5.164,5.164,0,0,1-4.289-1.915,6.422,6.422,0,0,1-1.354-3.591c-.045-.763-.241-3.233-.241-3.271a1.032,1.032,0,0,1,2.063-.08s.214,2.452.26,3.225a4.355,4.355,0,0,0,.877,2.372,3.069,3.069,0,0,0,2.686,1.155h1.582a1.052,1.052,0,0,1,0,2.1Zm6.927-7.088v-1.815a1.043,1.043,0,1,1,2.085,0v1.814a1.042,1.042,0,1,1-2.085,0h0Zm3.475-2.981a2.505,2.505,0,0,0-2.438-1.9,2.544,2.544,0,0,0-2.473,1.9,1.029,1.029,0,0,1-1.149.766,23.708,23.708,0,0,1-9.794-3.675,1.054,1.054,0,0,1-.469-.878V367.93a5.328,5.328,0,0,1,5.305-5.338H48.02a4.132,4.132,0,0,1,4.072-3.619h3.588a4.132,4.132,0,0,1,4.083,3.619h2.728a5.321,5.321,0,0,1,5.291,5.338v4.861a1.058,1.058,0,0,1-.467.878,23.723,23.723,0,0,1-9.837,3.686,1.057,1.057,0,0,1-1.154-.784Zm1.686-1.43a21.745,21.745,0,0,0,7.69-2.926V367.93a3.225,3.225,0,0,0-3.206-3.236H53.9a1.052,1.052,0,0,1,0-2.1h3.753a2.034,2.034,0,0,0-1.965-1.514H52.092a2.038,2.038,0,0,0-2.022,2.044v.518a1.044,1.044,0,0,1-1.036,1.053H45.306a3.231,3.231,0,0,0-3.22,3.238v4.286a21.668,21.668,0,0,0,7.659,2.913,4.633,4.633,0,0,1,4.14-2.556,4.565,4.565,0,0,1,4.126,2.569Z" transform="translate(141 -137.973)" fill="#fff"/>
  </g>
</svg>
