<svg xmlns="http://www.w3.org/2000/svg" width="35" height="35" viewBox="0 0 35 35">
  <g id="Layer_73" data-name="Layer 73" transform="translate(-3.25 -3.25)">
    <path id="Trazado_94990" data-name="Trazado 94990" d="M30.489,3.25H11.011A7.767,7.767,0,0,0,3.25,11.011V30.489a7.767,7.767,0,0,0,7.761,7.761H30.489a7.767,7.767,0,0,0,7.761-7.761V11.011A7.767,7.767,0,0,0,30.489,3.25ZM20.421,27.172l-4.6,4.6a.456.456,0,0,1-.645,0l-4.6-4.6a1.455,1.455,0,0,1,1.035-2.477,1.418,1.418,0,0,1,1.029.426l1.406,1.406V11.053a1.455,1.455,0,1,1,2.91,0V26.52l1.406-1.412a1.457,1.457,0,1,1,2.057,2.063Zm0-14.286a1.455,1.455,0,0,1,1.455-1.455h8a1.455,1.455,0,0,1,0,2.91H21.894a1.455,1.455,0,0,1-1.455-1.455ZM29.88,28.663H28.207a1.455,1.455,0,0,1,0-2.91H29.88a1.455,1.455,0,0,1,0,2.91Zm0-7.158H25.053a1.455,1.455,0,0,1,0-2.91H29.88a1.455,1.455,0,0,1,0,2.91Z" fill="#3742a6"/>
  </g>
</svg>
