<svg xmlns="http://www.w3.org/2000/svg" width="69" height="72" viewBox="0 0 69 72">
  <g id="Grupo_41207" data-name="Grupo 41207" transform="translate(-1098 -210)">
    <text id="Exportar" transform="translate(1098 278)" fill="#4daa57" font-size="18" font-family="HelveticaNeue, Helvetica Neue"><tspan x="0" y="0">Exportar</tspan></text>
    <path id="xls-file" d="M68.728,0H51.612a4.542,4.542,0,0,0-4.536,4.535V21.307h-.443a1.827,1.827,0,0,0-1.828,1.828V34.218a1.827,1.827,0,0,0,1.828,1.828h.443v2.032a4.54,4.54,0,0,0,4.536,4.535H74.965A4.54,4.54,0,0,0,79.5,38.078V10.734ZM49.459,25.033h2l.673,1.4c.228.467.4.844.582,1.277h.022c.182-.49.331-.833.525-1.277l.65-1.4h1.984l-2.167,3.751L56,32.719H54l-.7-1.392c-.285-.536-.467-.935-.685-1.38h-.022c-.16.446-.354.844-.593,1.38l-.639,1.392H49.378L51.6,28.83Zm25.507,14.8H51.612a1.759,1.759,0,0,1-1.757-1.758V36.046h21.77a1.827,1.827,0,0,0,1.828-1.828V23.134a1.827,1.827,0,0,0-1.828-1.828H49.856V4.535A1.759,1.759,0,0,1,51.612,2.78l16.076-.017V8.706a3.146,3.146,0,0,0,3.145,3.145l5.821-.017.065,26.244A1.758,1.758,0,0,1,74.965,39.836ZM61.745,31.26v1.46h-4.8V25.033h1.745V31.26Zm2.945-1.768c-1.277-.444-2.11-1.152-2.11-2.269,0-1.312,1.095-2.315,2.909-2.315a4.72,4.72,0,0,1,1.962.387l-.388,1.4a3.661,3.661,0,0,0-1.608-.365c-.753,0-1.118.343-1.118.741,0,.49.433.708,1.426,1.084,1.357.5,2,1.209,2,2.293,0,1.288-.992,2.383-3.1,2.383a5.027,5.027,0,0,1-2.179-.468l.354-1.436a4.431,4.431,0,0,0,1.927.478c.8,0,1.22-.33,1.22-.832C65.979,30.1,65.614,29.822,64.691,29.492Z" transform="translate(1070.194 210)" fill="#4daa57"/>
  </g>
</svg>
