<svg xmlns="http://www.w3.org/2000/svg" width="46" height="45" viewBox="0 0 46 45">
  <g id="Grupo_45720" data-name="Grupo 45720" transform="translate(-436 -213)">
    <rect id="Rectángulo_26133" data-name="Rectángulo 26133" width="46" height="45" transform="translate(436 213)" fill="none"/>
    <g id="time-left_1_" data-name="time-left (1)" transform="translate(445 219.312)">
      <g id="Layer_2_16_" transform="translate(0 1.688)">
        <g id="Grupo_5006" data-name="Grupo 5006" transform="translate(0 0)">
          <path id="Trazado_268" data-name="Trazado 268" d="M254.3,423.189c-.233.058-.471.11-.707.153a1.137,1.137,0,0,0,.414,2.235c.281-.052.564-.113.842-.183a1.137,1.137,0,0,0-.549-2.206Z" transform="translate(-237.31 -397.538)" fill="#fff"/>
          <path id="Trazado_269" data-name="Trazado 269" d="M412.789,138.449a1.137,1.137,0,0,0,2.158-.715c-.09-.272-.19-.544-.3-.809a1.137,1.137,0,1,0-2.111.844C412.631,137.992,412.714,138.221,412.789,138.449Z" transform="translate(-387.39 -128.034)" fill="#fff"/>
          <path id="Trazado_270" data-name="Trazado 270" d="M322.051,394.1c-.2.132-.407.26-.616.381a1.137,1.137,0,1,0,1.136,1.969c.248-.143.494-.3.733-.453a1.137,1.137,0,0,0-1.253-1.9Z" transform="translate(-301.364 -370.072)" fill="#fff"/>
          <path id="Trazado_271" data-name="Trazado 271" d="M429.907,208.4a1.137,1.137,0,1,0-2.272.089c.009.24.012.483.006.723a1.137,1.137,0,1,0,2.273.05C429.921,208.98,429.918,208.69,429.907,208.4Z" transform="translate(-401.642 -194.814)" fill="#fff"/>
          <path id="Trazado_272" data-name="Trazado 272" d="M379.071,344.3a1.136,1.136,0,0,0-1.592.227c-.144.192-.3.382-.452.565a1.137,1.137,0,0,0,.128,1.6c.027.023.055.044.083.064a1.137,1.137,0,0,0,1.519-.193c.186-.218.367-.445.539-.675A1.137,1.137,0,0,0,379.071,344.3Z" transform="translate(-353.856 -323.258)" fill="#fff"/>
          <path id="Trazado_273" data-name="Trazado 273" d="M415.488,279.4a1.137,1.137,0,0,0-1.425.745c-.072.229-.151.459-.237.684a1.137,1.137,0,0,0,2.124.809c.1-.268.2-.541.282-.813A1.137,1.137,0,0,0,415.488,279.4Z" transform="translate(-388.603 -262.475)" fill="#fff"/>
          <path id="Trazado_274" data-name="Trazado 274" d="M12.035,27.5a11.737,11.737,0,0,1-2.916-.927l-.032-.017c-.218-.1-.435-.212-.646-.327l0,0a12.126,12.126,0,0,1-1.131-.707,11.861,11.861,0,0,1,.05-19.428L7.4,6.065a11.882,11.882,0,0,1,13.316-.107l-.888,1.283c-.247.357-.1.617.337.579l3.858-.345a.635.635,0,0,0,.575-.831L23.56,2.912c-.116-.418-.413-.468-.66-.111l-.89,1.286A14.038,14.038,0,0,0,11.723,1.9q-.546.094-1.076.23H10.64l-.041.011A14.016,14.016,0,0,0,2.827,7.35c-.016.019-.033.038-.049.059-.064.087-.128.176-.191.265-.1.146-.2.295-.3.444-.012.018-.021.036-.032.054a14.014,14.014,0,0,0-2.24,8.266c0,.01,0,.019,0,.029.013.285.035.574.066.859,0,.018.006.036.009.054.032.286.072.573.121.86a14.028,14.028,0,0,0,3.956,7.607l.015.015.005,0A14.322,14.322,0,0,0,6,27.381a14.015,14.015,0,0,0,5.636,2.359,1.137,1.137,0,0,0,.4-2.238Z" transform="translate(0 -1.688)" fill="#fff"/>
          <path id="Trazado_275" data-name="Trazado 275" d="M206.907,83.2a.92.92,0,0,0-.92.92V93.28l8.38,4.332a.92.92,0,0,0,.845-1.634l-7.385-3.818V84.118A.92.92,0,0,0,206.907,83.2Z" transform="translate(-193.467 -78.244)" fill="#fff"/>
        </g>
      </g>
    </g>
  </g>
</svg>
