<svg xmlns="http://www.w3.org/2000/svg" width="46" height="45" viewBox="0 0 46 45">
  <g id="Grupo_45950" data-name="Grupo 45950" transform="translate(-17213 111)">
    <rect id="Rectángulo_26133" data-name="Rectángulo 26133" width="46" height="45" transform="translate(17213 -111)" fill="none"/>
    <g id="shape_1_" data-name="shape (1)" transform="translate(17222 -102)">
      <path id="Trazado_97132" data-name="Trazado 97132" d="M22.112,11.271a1.159,1.159,0,0,0,1.159-1.159V3.159A1.159,1.159,0,0,0,22.112,2H15.159A1.159,1.159,0,0,0,14,3.159v6.953a1.159,1.159,0,0,0,1.159,1.159Z" transform="translate(1.907)" fill="#707070"/>
      <path id="Trazado_97133" data-name="Trazado 97133" d="M10.112,14.271a1.159,1.159,0,0,0,1.159-1.159V6.159A1.159,1.159,0,0,0,10.112,5H3.159A1.159,1.159,0,0,0,2,6.159v6.953a1.159,1.159,0,0,0,1.159,1.159Z" transform="translate(0 0.477)" fill="#707070"/>
      <path id="Trazado_97134" data-name="Trazado 97134" d="M10.112,23.271a1.159,1.159,0,0,0,1.159-1.159V15.159A1.159,1.159,0,0,0,10.112,14H3.159A1.159,1.159,0,0,0,2,15.159v6.953a1.159,1.159,0,0,0,1.159,1.159Z" transform="translate(0 1.907)" fill="#707070"/>
      <path id="Trazado_97135" data-name="Trazado 97135" d="M19.112,23.271a1.159,1.159,0,0,0,1.159-1.159V15.159A1.159,1.159,0,0,0,19.112,14H12.159A1.159,1.159,0,0,0,11,15.159v6.953a1.159,1.159,0,0,0,1.159,1.159Z" transform="translate(1.43 1.907)" fill="#707070"/>
    </g>
  </g>
</svg>
