<svg id="Grupo_45949" data-name="Grupo 45949" xmlns="http://www.w3.org/2000/svg" width="37" height="44" viewBox="0 0 37 44">
  <rect id="Rectángulo_26135" data-name="Rectángulo 26135" width="37" height="44" fill="none"/>
  <path id="icon_copy" data-name="icon copy" d="M677.05,4297.932a5.969,5.969,0,0,1-6.043-5.871v-13.439A5.706,5.706,0,0,1,676.78,4273h6.836a.581.581,0,0,1,.588.574v4.014a4.244,4.244,0,0,0,4.277,4.165c.547,0,1.027,0,1.451.007h1.553c.3,0,.628-.006.926-.006a.569.569,0,0,1,.577.56v10.023a5.688,5.688,0,0,1-5.762,5.6Zm.588-11.231a.942.942,0,0,0,.959.922h2.2v2.158a.955.955,0,0,0,1.907.066c0-.021,0-.045,0-.066v-2.158h2.215a.929.929,0,1,0,0-1.857h-2.209v-2.158a.955.955,0,0,0-1.907-.067c0,.022,0,.045,0,.067v2.158h-2.2a.948.948,0,0,0-.965.932Zm11.013-6.771a2.561,2.561,0,0,1-2.586-2.514v-3.286a.6.6,0,0,1,.6-.6.623.623,0,0,1,.454.184l5.154,5.22a.578.578,0,0,1-.019.839.62.62,0,0,1-.42.166H691C690.174,4279.941,689.316,4279.938,688.652,4279.929Z" transform="translate(-663.617 -4263)" fill="#6f7073"/>
</svg>
