<svg xmlns="http://www.w3.org/2000/svg" width="46" height="45" viewBox="0 0 46 45">
  <g id="Grupo_45713" data-name="Grupo 45713" transform="translate(-502 -148)">
    <path id="file" d="M14.84,27.051H3.442a.817.817,0,0,1-.814-.814V3.442a.817.817,0,0,1,.814-.814h9.769V7.513a2.45,2.45,0,0,0,2.442,2.442h4.885V12.4a.814.814,0,1,0,1.628,0V9.141a.288.288,0,0,1-.008-.049.567.567,0,0,0-.041-.2.139.139,0,0,0-.008-.057c0-.008-.016-.016-.016-.024a.682.682,0,0,0-.163-.236L14.6,1.236a.877.877,0,0,0-.236-.163c-.008,0-.016-.016-.024-.016a.159.159,0,0,1-.057-.008.821.821,0,0,0-.2-.041c-.016,0-.033-.008-.049-.008H3.442A2.45,2.45,0,0,0,1,3.442v22.8A2.45,2.45,0,0,0,3.442,28.68h11.4a.814.814,0,1,0,0-1.628ZM19.391,8.327H15.654a.817.817,0,0,1-.814-.814V3.776Zm1.962,5.7a7.327,7.327,0,1,0,7.327,7.327A7.338,7.338,0,0,0,21.353,14.026Zm5.634,6.513h-4.82v-4.82A5.7,5.7,0,0,1,26.986,20.539Zm-5.634,6.513a5.7,5.7,0,0,1-.814-11.332v5.634a.817.817,0,0,0,.814.814h5.634A5.7,5.7,0,0,1,21.353,27.051Zm-17.1-13.84a.817.817,0,0,1,.814-.814h8.141a.814.814,0,1,1,0,1.628H5.071A.817.817,0,0,1,4.256,13.212Zm0-4.071a.817.817,0,0,1,.814-.814h5.7a.814.814,0,0,1,0,1.628h-5.7A.817.817,0,0,1,4.256,9.141Z" transform="translate(510 156)" fill="#6f7073"/>
    <rect id="Rectángulo_26133" data-name="Rectángulo 26133" width="46" height="45" transform="translate(502 148)" fill="none"/>
  </g>
</svg>
