<svg xmlns="http://www.w3.org/2000/svg" width="46" height="45" viewBox="0 0 46 45">
  <g id="vistas" transform="translate(-106 -148)">
    <path id="Statement" d="M47.934,285A5.953,5.953,0,0,1,42,279.026c0-.042,0-.084,0-.126v-3.28a.971.971,0,1,1,1.941,0v3.28a4.027,4.027,0,0,0,3.914,4.135H58.267a4.107,4.107,0,0,0,3.854-4.137V267.3l-4.951-5.218v1.711a2.378,2.378,0,0,0,2.351,2.388.982.982,0,0,1,0,1.963h0a4.334,4.334,0,0,1-4.291-4.353v-2.81h-7.3a4,4,0,0,0-3.989,3.9v5.406a.971.971,0,1,1-1.941,0v-5.406a5.974,5.974,0,0,1,5.93-5.863h8.191A.581.581,0,0,1,56.2,259c.026,0,.048.013.074.016h.263a.964.964,0,0,1,.7.3l6.551,6.905a.99.99,0,0,1,.274.68v12a6.032,6.032,0,0,1-5.795,6.1Zm1.038-7.272a.981.981,0,0,1,0-1.963h6.982a.981.981,0,0,1,0,1.963Zm0-6.482a.982.982,0,0,1,0-1.963h4.342a.982.982,0,0,1,0,1.963Z" transform="translate(75.998 -101)" fill="#6f7073"/>
    <rect id="Rectángulo_26133" data-name="Rectángulo 26133" width="46" height="45" transform="translate(106 148)" fill="none"/>
  </g>
</svg>
