<svg xmlns="http://www.w3.org/2000/svg" width="25.302" height="17" viewBox="0 0 25.302 17">
  <path id="visible" d="M42.447,105.658a12.481,12.481,0,0,1-21.818,0,.93.93,0,0,1,0-.939,12.481,12.481,0,0,1,21.818,0A.916.916,0,0,1,42.447,105.658Zm1.408-1.724a14.092,14.092,0,0,0-24.635,0,2.524,2.524,0,0,0,0,2.509,14.092,14.092,0,0,0,24.635,0A2.524,2.524,0,0,0,43.855,103.933ZM31.539,108.5a3.309,3.309,0,1,0-3.311-3.309A3.312,3.312,0,0,0,31.539,108.5Zm0-8.231a4.922,4.922,0,1,0,4.921,4.922A4.928,4.928,0,0,0,31.539,100.266Z" transform="translate(-18.887 -96.688)" fill="#cecece" fill-rule="evenodd"/>
</svg>
