<svg xmlns="http://www.w3.org/2000/svg" width="299" height="50" viewBox="0 0 299 50">
  <g id="Grupo_45622" data-name="Grupo 45622" transform="translate(-1131 -501)">
    <g id="text_box" data-name="text box" transform="translate(1131 501)" fill="#fff" stroke="#2572c6" stroke-width="1">
      <rect width="299" height="50" rx="20" stroke="none"/>
      <rect x="0.5" y="0.5" width="298" height="49" rx="19.5" fill="none"/>
    </g>
    <g id="_294669_microsoft_icon" data-name="294669_microsoft_icon" transform="translate(1195.998 306.997)">
      <g id="形状_1_9_" transform="translate(58.246 210.86)">
        <g id="形状_1" transform="translate(0 0)">
          <g id="Grupo_45617" data-name="Grupo 45617">
            <path id="Trazado_97106" data-name="Trazado 97106" d="M181.768,229.417a4.066,4.066,0,0,1,2.916.894c.008-.812-.006-1.625.008-2.437a3.068,3.068,0,0,0-.729-.3,7.01,7.01,0,0,0-3.8-.011,5.139,5.139,0,0,0-2.834,2,6.445,6.445,0,0,0-1.01,3.954,5.3,5.3,0,0,0,1.546,3.566,5.184,5.184,0,0,0,3.328,1.385,6.224,6.224,0,0,0,3.492-.721c-.009-.769,0-1.539-.006-2.308a4.879,4.879,0,0,1-2.292.939,3.24,3.24,0,0,1-2.39-.71,3.191,3.191,0,0,1-1.032-2.118,4.1,4.1,0,0,1,.677-2.951A3,3,0,0,1,181.768,229.417Zm-8.63-6.373a1.476,1.476,0,0,0-1.3,1.446,1.442,1.442,0,0,0,1.186,1.42,1.591,1.591,0,0,0,1.7-.711,1.45,1.45,0,0,0-.177-1.656A1.565,1.565,0,0,0,173.137,223.044Zm-7.029.324c-1.476,3.666-2.985,7.317-4.473,10.977-.31-.727-.587-1.468-.882-2.2q-1.737-4.394-3.479-8.785h-3.715q0,7.431,0,14.863c.81,0,1.621,0,2.432,0q0-3.327,0-6.654c.009-1.6-.018-3.2.013-4.806.046.073.089.148.128.226,1.515,3.745,3.02,7.495,4.543,11.237.612-.01,1.225.011,1.836-.011,1.468-3.745,2.973-7.477,4.449-11.219a2,2,0,0,1,.134-.238c.011.164.017.328.016.493,0,3.656.005,7.312,0,10.967.859.012,1.718,0,2.578.005q0-7.43,0-14.861C168.492,223.364,167.3,223.349,166.109,223.368Zm24.3,4.365a3.266,3.266,0,0,0-1.32,1.669c0-.61,0-1.219,0-1.829-.841,0-1.682-.008-2.523,0q.008,5.323,0,10.647h2.519q0-2.547,0-5.094a4.7,4.7,0,0,1,.364-2.175,2.119,2.119,0,0,1,1.6-1.275,2.719,2.719,0,0,1,1.727.4c0-.85,0-1.7,0-2.55A2.887,2.887,0,0,0,190.4,227.733Zm-18.33-.16q0,5.325,0,10.649h2.536c0-3.548-.006-7.1,0-10.645C173.769,227.562,172.921,227.57,172.074,227.573Zm38.344,4.843c-.751-.433-1.615-.638-2.339-1.122a1.1,1.1,0,0,1-.37-1.3,1.374,1.374,0,0,1,1.22-.673,4.508,4.508,0,0,1,2.683.791c0-.781,0-1.561,0-2.343a6.772,6.772,0,0,0-3.536-.367,3.805,3.805,0,0,0-2.542,1.558,3.243,3.243,0,0,0-.353,2.542,2.638,2.638,0,0,0,.954,1.446,10.7,10.7,0,0,0,2.205,1.126,3.077,3.077,0,0,1,1.115.728,1.016,1.016,0,0,1-.305,1.448,2.992,2.992,0,0,1-1.763.162,5.6,5.6,0,0,1-2.318-1c-.009.821,0,1.642,0,2.464a7.614,7.614,0,0,0,2.6.595,4.894,4.894,0,0,0,3.555-1.077,3.1,3.1,0,0,0,.665-3.586A3.353,3.353,0,0,0,210.417,232.416Zm11.214-4.529a6.63,6.63,0,0,0-3.792-.514,5.3,5.3,0,0,0-2.823,1.208,5.214,5.214,0,0,0-1.685,3.271,7.038,7.038,0,0,0,.4,3.7,4.729,4.729,0,0,0,2.6,2.512,6.882,6.882,0,0,0,3.6.3,4.99,4.99,0,0,0,3.141-1.832,5.816,5.816,0,0,0,1.156-3.628,6.773,6.773,0,0,0-.4-2.544A4.551,4.551,0,0,0,221.631,227.887Zm-.11,6.089a3.319,3.319,0,0,1-.66,1.563,2.393,2.393,0,0,1-1.493.8,3.383,3.383,0,0,1-1.827-.2,2.585,2.585,0,0,1-1.347-1.406,5.043,5.043,0,0,1-.3-2.321,3.676,3.676,0,0,1,.774-2.121,2.617,2.617,0,0,1,1.865-.892,2.808,2.808,0,0,1,2.047.6,2.921,2.921,0,0,1,.924,1.7A6.471,6.471,0,0,1,221.521,233.976Zm-20.387-6.169a6.8,6.8,0,0,0-3.657-.43,5.1,5.1,0,0,0-3.359,1.791,5.666,5.666,0,0,0-1.179,3.255,6.1,6.1,0,0,0,.936,3.978,4.84,4.84,0,0,0,2.952,1.92,7.359,7.359,0,0,0,2.991,0,4.946,4.946,0,0,0,2.933-1.805,5.64,5.64,0,0,0,1.123-3.1,6.973,6.973,0,0,0-.508-3.36A4.511,4.511,0,0,0,201.134,227.807Zm-.236,7.139a2.331,2.331,0,0,1-1.255,1.23,3.45,3.45,0,0,1-2.082.091,2.548,2.548,0,0,1-1.6-1.318,4.9,4.9,0,0,1-.388-2.666,3.386,3.386,0,0,1,.987-2.223,2.678,2.678,0,0,1,1.681-.662,2.754,2.754,0,0,1,2.137.723,3.432,3.432,0,0,1,.882,2.22A5.567,5.567,0,0,1,200.9,234.946Zm36.7-5.307v-2.07c-.843,0-1.686-.006-2.528.006-.019-1.064,0-2.127-.009-3.19-.843.253-1.681.523-2.528.764-.02.807,0,1.615-.011,2.421-1.246,0-2.491,0-3.737,0a16.117,16.117,0,0,1,.048-1.908,1.489,1.489,0,0,1,.852-1.189,2.44,2.44,0,0,1,1.883.172c0-.728.006-1.457-.005-2.184a4.646,4.646,0,0,0-3.723.436,3.475,3.475,0,0,0-1.441,1.962,10.85,10.85,0,0,0-.176,2.716c-.591,0-1.181-.01-1.771,0,.006.681,0,1.362,0,2.042.592.012,1.185,0,1.778.009q-.008,4.3,0,8.594h2.555q0-4.3,0-8.6,1.869,0,3.739,0c0,1.827,0,3.653,0,5.479a3.8,3.8,0,0,0,.721,2.432,2.843,2.843,0,0,0,2.014.922,5.009,5.009,0,0,0,2.336-.357v-2.09a1.908,1.908,0,0,1-1.943.182,1.282,1.282,0,0,1-.552-1.016c-.077-.657-.028-1.319-.042-1.978,0-1.19,0-2.38,0-3.57C235.9,229.63,236.749,229.6,237.594,229.639Z" transform="translate(-153.558 -222.263)" fill="#434343" fill-rule="evenodd"/>
          </g>
        </g>
      </g>
      <g id="形状_1_8_" transform="translate(26.002 207.003)">
        <g id="形状_1_1_">
          <g id="Grupo_45618" data-name="Grupo 45618">
            <path id="Trazado_97107" data-name="Trazado 97107" d="M26,207v11.784H37.814q0-5.892,0-11.784Z" transform="translate(-26.002 -207.003)" fill="#f25022" fill-rule="evenodd"/>
          </g>
        </g>
      </g>
      <g id="形状_1_7_" transform="translate(26.002 219.99)">
        <g id="形状_1_2_" transform="translate(0 0)">
          <g id="Grupo_45619" data-name="Grupo 45619">
            <path id="Trazado_97108" data-name="Trazado 97108" d="M26,258.377v11.785H37.815q0-5.892,0-11.783Q31.908,258.375,26,258.377Z" transform="translate(-26.002 -258.377)" fill="#02a4ef" fill-rule="evenodd"/>
          </g>
        </g>
      </g>
      <g id="形状_1_6_" transform="translate(39.021 219.99)">
        <g id="形状_1_3_" transform="translate(0 0)">
          <g id="Grupo_45620" data-name="Grupo 45620">
            <path id="Trazado_97109" data-name="Trazado 97109" d="M77.5,258.38q0,5.891,0,11.783H89.316V258.379Q83.409,258.379,77.5,258.38Z" transform="translate(-77.503 -258.379)" fill="#ffb902" fill-rule="evenodd"/>
          </g>
        </g>
      </g>
      <g id="形状_1_5_" transform="translate(39.021 207.003)">
        <g id="形状_1_4_" transform="translate(0)">
          <g id="Grupo_45621" data-name="Grupo 45621">
            <path id="Trazado_97110" data-name="Trazado 97110" d="M77.5,207q0,5.892,0,11.784H89.314q0-5.892,0-11.784Z" transform="translate(-77.502 -207.003)" fill="#80ba01" fill-rule="evenodd"/>
          </g>
        </g>
      </g>
    </g>
  </g>
</svg>
